<?xml version="1.0" encoding="UTF-8" standalone="no"?>
<svg width="134px" height="40px" viewBox="0 0 134 40" version="1.1" xmlns="http://www.w3.org/2000/svg" xmlns:xlink="http://www.w3.org/1999/xlink">
    <!-- Generator: Sketch 3.7 (28169) - http://www.bohemiancoding.com/sketch -->
    <title>ico_appstore</title>
    <desc>Created with Sketch.</desc>
    <defs></defs>
    <g id="Construir" stroke="none" stroke-width="1" fill="none" fill-rule="evenodd">
        <g id="Home" transform="translate(-126.000000, -501.000000)">
            <g id="ico_appstore" transform="translate(126.000000, 501.000000)">
                <g id="Group">
                    <path d="M130.2,40 L4.7,40 C2.1,40 0,37.9 0,35.3 L0,4.7 C0,2.1 2.1,0 4.7,0 L130.2,0 C132.8,0 135,2.1 135,4.7 L135,35.2 C135,37.9 132.8,40 130.2,40 L130.2,40 Z" id="Shape"></path>
                    <path d="M134,35.3 C134,37.4 132.3,39.1 130.2,39.1 L4.7,39.1 C2.6,39.1 0.9,37.4 0.9,35.3 L0.9,4.7 C0.9,2.6 2.6,0.9 4.7,0.9 L130.2,0.9 C132.3,0.9 134,2.6 134,4.7 L134,35.3 L134,35.3 Z" id="Shape" fill="#263238"></path>
                    <g transform="translate(12.000000, 6.000000)" id="Shape" fill="#FFFFFF">
                        <path d="M18.1,13.8 C18.1,10.6 20.7,9 20.9,8.9 C19.4,6.7 17,6.4 16.2,6.4 C14.2,6.2 12.3,7.6 11.3,7.6 C10.3,7.6 8.7,6.4 7.1,6.5 C5,6.5 3,7.8 1.9,9.7 C-0.4,13.6 1.3,19.4 3.5,22.6 C4.6,24.2 5.9,25.9 7.5,25.8 C9.1,25.7 9.7,24.8 11.7,24.8 C13.6,24.8 14.2,25.8 15.9,25.8 C17.6,25.8 18.7,24.2 19.8,22.7 C21.1,20.9 21.6,19.2 21.6,19.1 C21.5,18.9 18.2,17.6 18.1,13.8 L18.1,13.8 Z M14.9,4.3 C15.8,3.2 16.4,1.7 16.2,0.2 C14.9,0.3 13.4,1.1 12.4,2.1 C11.6,3 10.9,4.6 11.1,6 C12.6,6.2 14,5.4 14.9,4.3 L14.9,4.3 Z"></path>
                    </g>
                    <g transform="translate(42.000000, 18.000000)" id="Shape" fill="#FFFFFF">
                        <path d="M11.6,13.5 L9.3,13.5 L8.1,9.6 L3.8,9.6 L2.6,13.5 L0.4,13.5 L4.7,0.2 L7.3,0.2 L11.6,13.5 L11.6,13.5 Z M7.8,8 L6.7,4.5 C6.6,4.1 6.4,3.3 6,2 C5.9,2.6 5.7,3.4 5.4,4.5 L4.2,8 L7.8,8 L7.8,8 Z M22.7,8.6 C22.7,10.2 22.3,11.5 21.4,12.5 C20.6,13.3 19.6,13.8 18.5,13.8 C17.2,13.8 16.3,13.3 15.8,12.4 L15.8,17.5 L13.7,17.5 L13.7,7.1 C13.7,6.1 13.7,5 13.6,3.9 L15.5,3.9 L15.6,5.4 C16.3,4.3 17.4,3.7 18.8,3.7 C19.9,3.7 20.9,4.1 21.6,5 C22.3,5.9 22.7,7.1 22.7,8.6 L22.7,8.6 Z M20.5,8.7 C20.5,7.8 20.3,7 19.9,6.4 C19.4,5.8 18.8,5.5 18,5.5 C17.5,5.5 17,5.7 16.6,6 C16.2,6.4 15.9,6.8 15.8,7.4 C15.7,7.7 15.7,7.9 15.7,8 L15.7,9.6 C15.7,10.3 15.9,10.9 16.3,11.4 C16.7,11.9 17.3,12.1 18,12.1 C18.8,12.1 19.4,11.8 19.9,11.2 C20.3,10.5 20.5,9.7 20.5,8.7 L20.5,8.7 Z M33.7,8.6 C33.7,10.2 33.3,11.5 32.4,12.5 C31.6,13.3 30.6,13.8 29.5,13.8 C28.2,13.8 27.3,13.3 26.8,12.4 L26.8,17.5 L24.7,17.5 L24.7,7.1 C24.7,6.1 24.7,5 24.6,3.9 L26.5,3.9 L26.6,5.4 C27.3,4.3 28.4,3.7 29.8,3.7 C30.9,3.7 31.9,4.1 32.6,5 C33.3,5.9 33.7,7.1 33.7,8.6 L33.7,8.6 Z M31.5,8.7 C31.5,7.8 31.3,7 30.9,6.4 C30.4,5.8 29.8,5.5 29,5.5 C28.5,5.5 28,5.7 27.6,6 C27.2,6.4 26.9,6.8 26.8,7.4 C26.7,7.7 26.7,7.9 26.7,8 L26.7,9.6 C26.7,10.3 26.9,10.9 27.3,11.4 C27.7,11.9 28.3,12.1 29,12.1 C29.8,12.1 30.4,11.8 30.9,11.2 C31.3,10.5 31.5,9.7 31.5,8.7 L31.5,8.7 Z M46,9.8 C46,10.9 45.6,11.9 44.8,12.6 C43.9,13.4 42.7,13.8 41.2,13.8 C39.8,13.8 38.6,13.5 37.8,13 L38.3,11.2 C39.2,11.8 40.3,12.1 41.4,12.1 C42.2,12.1 42.8,11.9 43.3,11.6 C43.7,11.2 44,10.8 44,10.1 C44,9.6 43.8,9.1 43.4,8.7 C43,8.3 42.4,8 41.6,7.7 C39.3,6.8 38.1,5.6 38.1,3.9 C38.1,2.8 38.5,1.9 39.3,1.2 C40.1,0.5 41.2,0.2 42.6,0.2 C43.8,0.2 44.8,0.4 45.6,0.8 L45,2.4 C44.2,2 43.4,1.8 42.5,1.8 C41.7,1.8 41.2,2 40.7,2.4 C40.3,2.7 40.2,3.1 40.2,3.6 C40.2,4.1 40.4,4.6 40.8,4.9 C41.2,5.2 41.8,5.6 42.7,5.9 C43.8,6.4 44.7,6.9 45.2,7.5 C45.8,8.1 46,8.9 46,9.8 L46,9.8 Z M53.1,5.5 L50.8,5.5 L50.8,10.2 C50.8,11.4 51.2,12 52,12 C52.4,12 52.7,12 52.9,11.9 L53,13.5 C52.6,13.7 52,13.7 51.3,13.7 C50.5,13.7 49.8,13.4 49.3,12.9 C48.8,12.4 48.6,11.5 48.6,10.3 L48.6,5.5 L47.2,5.5 L47.2,3.9 L48.6,3.9 L48.6,2.1 L50.7,1.5 L50.7,3.9 L53,3.9 C53.1,3.9 53.1,5.5 53.1,5.5 L53.1,5.5 Z M63.7,8.6 C63.7,10.1 63.3,11.3 62.4,12.2 C61.5,13.2 60.3,13.7 58.9,13.7 C57.5,13.7 56.4,13.2 55.5,12.3 C54.6,11.4 54.2,10.2 54.2,8.8 C54.2,7.3 54.6,6.1 55.5,5.1 C56.4,4.2 57.5,3.7 59,3.7 C60.4,3.7 61.5,4.2 62.4,5.1 C63.3,6 63.7,7.2 63.7,8.6 L63.7,8.6 Z M61.5,8.7 C61.5,7.8 61.3,7.1 60.9,6.4 C60.5,5.6 59.8,5.3 59,5.3 C58.1,5.3 57.5,5.7 57,6.4 C56.6,7 56.4,7.8 56.4,8.7 C56.4,9.6 56.6,10.3 57,11 C57.5,11.8 58.1,12.1 58.9,12.1 C59.7,12.1 60.4,11.7 60.8,10.9 C61.3,10.3 61.5,9.6 61.5,8.7 L61.5,8.7 Z M70.6,5.8 C70.4,5.8 70.2,5.7 69.9,5.7 C69.1,5.7 68.6,6 68.2,6.6 C67.8,7.1 67.7,7.7 67.7,8.5 L67.7,13.5 L65.6,13.5 L65.6,6.9 C65.6,5.8 65.6,4.8 65.5,3.9 L67.4,3.9 L67.5,5.7 L67.6,5.7 C67.8,5.1 68.2,4.6 68.7,4.2 C69.2,3.9 69.7,3.7 70.2,3.7 L70.7,3.7 C70.6,3.8 70.6,5.8 70.6,5.8 L70.6,5.8 Z M80.2,8.3 C80.2,8.7 80.2,9 80.1,9.3 L73.7,9.3 C73.7,10.2 74,11 74.6,11.5 C75.1,11.9 75.8,12.2 76.7,12.2 C77.6,12.2 78.5,12 79.3,11.7 L79.6,13.2 C78.7,13.6 77.6,13.8 76.4,13.8 C74.9,13.8 73.7,13.4 72.9,12.5 C72.1,11.6 71.6,10.5 71.6,9 C71.6,7.6 72,6.3 72.8,5.4 C73.6,4.4 74.7,3.9 76.2,3.9 C77.6,3.9 78.6,4.4 79.3,5.4 C79.9,6 80.2,7.1 80.2,8.3 L80.2,8.3 Z M78.1,7.7 C78.1,7.1 78,6.5 77.7,6.1 C77.3,5.5 76.8,5.2 76,5.2 C75.3,5.2 74.7,5.5 74.3,6.1 C73.9,6.6 73.7,7.1 73.7,7.8 L78.1,7.7 L78.1,7.7 Z"></path>
                    </g>
                    <g transform="translate(43.000000, 6.000000)" id="Shape" fill="#FFFFFF">
                        <path d="M6,4 C6,5.2 5.6,6.1 4.9,6.7 C4.2,7.2 3.3,7.5 2.1,7.5 C1.5,7.5 1,7.5 0.6,7.4 L0.6,1 C1.2,0.9 1.8,0.9 2.4,0.9 C3.5,0.9 4.4,1.1 5,1.6 C5.7,2.2 6,3 6,4 L6,4 Z M4.9,4 C4.9,3.2 4.7,2.7 4.3,2.2 C3.9,1.8 3.3,1.6 2.5,1.6 C2.2,1.6 1.9,1.6 1.7,1.7 L1.7,6.6 L2.4,6.6 C3.2,6.6 3.8,6.4 4.3,5.9 C4.8,5.4 4.9,4.9 4.9,4 L4.9,4 Z M11.9,5 C11.9,5.7 11.7,6.3 11.3,6.8 C10.9,7.3 10.3,7.5 9.6,7.5 C8.9,7.5 8.4,7.3 7.9,6.8 C7.5,6.3 7.3,5.8 7.3,5.1 C7.3,4.4 7.5,3.8 7.9,3.3 C8.3,2.8 8.9,2.6 9.6,2.6 C10.3,2.6 10.8,2.8 11.3,3.3 C11.7,3.8 11.9,4.3 11.9,5 L11.9,5 Z M10.8,5.1 C10.8,4.7 10.7,4.3 10.5,4 C10.3,3.6 10,3.4 9.6,3.4 C9.2,3.4 8.9,3.6 8.6,4 C8.4,4.3 8.3,4.7 8.3,5.1 C8.3,5.5 8.4,5.9 8.6,6.2 C8.8,6.6 9.1,6.8 9.6,6.8 C10,6.8 10.3,6.6 10.5,6.2 C10.7,5.9 10.8,5.5 10.8,5.1 L10.8,5.1 Z M19.8,2.7 L18.3,7.4 L17.3,7.4 L16.7,5.4 C16.5,4.9 16.4,4.4 16.3,3.9 C16.2,4.4 16.1,4.9 15.9,5.4 L15.3,7.4 L14.3,7.4 L12.9,2.7 L14,2.7 L14.5,4.9 L14.8,6.4 C14.9,6 15,5.5 15.2,4.9 L15.9,2.7 L16.8,2.7 L17.4,4.9 C17.6,5.4 17.7,6 17.8,6.5 C17.9,6 18,5.5 18.1,4.9 L18.7,2.7 L19.8,2.7 L19.8,2.7 Z M25.2,7.4 L24.2,7.4 L24.2,4.7 C24.2,3.9 23.9,3.5 23.3,3.5 C23,3.5 22.7,3.6 22.5,3.8 C22.3,4 22.2,4.3 22.2,4.6 L22.2,7.4 L21.2,7.4 L21.2,2.7 L22,2.7 L22,3.4 C22.1,3.2 22.3,3 22.5,2.8 C22.8,2.6 23.1,2.5 23.4,2.5 C23.8,2.5 24.2,2.6 24.5,2.9 C24.9,3.2 25,3.8 25,4.5 L25,7.4 L25.2,7.4 Z M28.1,7.4 L27.1,7.4 L27.1,0.6 L28.1,0.6 L28.1,7.4 L28.1,7.4 Z M34.3,5 C34.3,5.7 34.1,6.3 33.7,6.8 C33.3,7.3 32.7,7.5 32,7.5 C31.3,7.5 30.8,7.3 30.3,6.8 C29.9,6.3 29.7,5.8 29.7,5.1 C29.7,4.4 29.9,3.8 30.3,3.3 C30.7,2.8 31.3,2.6 32,2.6 C32.7,2.6 33.2,2.8 33.7,3.3 C34.1,3.8 34.3,4.3 34.3,5 L34.3,5 Z M33.2,5.1 C33.2,4.7 33.1,4.3 32.9,4 C32.7,3.6 32.4,3.4 32,3.4 C31.6,3.4 31.3,3.6 31,4 C30.8,4.3 30.7,4.7 30.7,5.1 C30.7,5.5 30.8,5.9 31,6.2 C31.2,6.6 31.5,6.8 32,6.8 C32.4,6.8 32.7,6.6 32.9,6.2 C33.1,5.9 33.2,5.5 33.2,5.1 L33.2,5.1 Z M39.3,7.4 L38.4,7.4 L38.3,6.9 C38,7.3 37.5,7.5 36.9,7.5 C36.5,7.5 36.1,7.4 35.8,7.1 C35.6,6.8 35.4,6.5 35.4,6.1 C35.4,5.5 35.6,5.1 36.1,4.8 C36.6,4.5 37.3,4.3 38.1,4.4 L38.1,4.3 C38.1,3.7 37.8,3.4 37.1,3.4 C36.6,3.4 36.2,3.5 35.9,3.7 L35.8,3 C36.2,2.7 36.8,2.6 37.4,2.6 C38.6,2.6 39.2,3.2 39.2,4.5 L39.2,6.2 C39.3,6.8 39.3,7.2 39.3,7.4 L39.3,7.4 Z M38.2,5.8 L38.2,5.1 C37,5.1 36.5,5.4 36.5,6 C36.5,6.2 36.6,6.4 36.7,6.6 C36.8,6.7 37,6.8 37.2,6.8 C37.4,6.8 37.6,6.7 37.8,6.6 C38,6.5 38.1,6.3 38.2,6 L38.2,5.8 L38.2,5.8 Z M45.3,7.4 L44.4,7.4 L44.4,6.6 C44.1,7.2 43.6,7.5 42.9,7.5 C42.3,7.5 41.9,7.3 41.5,6.8 C41.1,6.3 40.9,5.8 40.9,5.1 C40.9,4.3 41.1,3.7 41.5,3.2 C41.9,2.8 42.4,2.5 43,2.5 C43.6,2.5 44.1,2.7 44.3,3.1 L44.3,0.6 L45.3,0.6 L45.3,6.2 C45.2,6.6 45.3,7 45.3,7.4 L45.3,7.4 Z M44.2,5.4 L44.2,4.3 C44.1,4 44,3.8 43.8,3.7 C43.6,3.5 43.4,3.4 43.1,3.4 C42.7,3.4 42.4,3.6 42.2,3.9 C42,4.2 41.9,4.6 41.9,5.1 C41.9,5.6 42,5.9 42.2,6.2 C42.4,6.5 42.7,6.7 43.1,6.7 C43.4,6.7 43.7,6.6 43.9,6.3 C44.1,6.1 44.2,5.8 44.2,5.4 L44.2,5.4 Z M54.2,5 C54.2,5.7 54,6.3 53.6,6.8 C53.2,7.3 52.6,7.5 51.9,7.5 C51.2,7.5 50.7,7.3 50.2,6.8 C49.8,6.3 49.6,5.8 49.6,5.1 C49.6,4.4 49.8,3.8 50.2,3.3 C50.6,2.8 51.2,2.6 51.9,2.6 C52.6,2.6 53.1,2.8 53.6,3.3 C54,3.8 54.2,4.3 54.2,5 L54.2,5 Z M53.2,5.1 C53.2,4.7 53.1,4.3 52.9,4 C52.7,3.6 52.4,3.4 52,3.4 C51.6,3.4 51.3,3.6 51,4 C50.8,4.3 50.7,4.7 50.7,5.1 C50.7,5.5 50.8,5.9 51,6.2 C51.2,6.6 51.5,6.8 52,6.8 C52.4,6.8 52.7,6.6 52.9,6.2 C53.1,5.9 53.2,5.5 53.2,5.1 L53.2,5.1 Z M59.9,7.4 L58.9,7.4 L58.9,4.7 C58.9,3.9 58.6,3.5 57.9,3.5 C57.6,3.5 57.3,3.6 57.1,3.8 C56.9,4 56.8,4.3 56.8,4.6 L56.8,7.4 L55.8,7.4 L55.8,2.7 L56.7,2.7 L56.7,3.4 C56.8,3.2 57,3 57.2,2.8 C57.5,2.6 57.8,2.5 58.2,2.5 C58.6,2.5 59,2.6 59.3,2.9 C59.7,3.2 59.8,3.8 59.8,4.5 L59.8,7.4 L59.9,7.4 Z M66.9,3.5 L65.7,3.5 L65.7,5.8 C65.7,6.4 65.9,6.7 66.3,6.7 L66.8,6.7 L66.8,7.5 C66.6,7.6 66.3,7.6 66,7.6 C65.6,7.6 65.3,7.5 65,7.2 C64.8,6.9 64.7,6.5 64.7,5.9 L64.7,3.5 L64,3.5 L64,2.7 L64.7,2.7 L64.7,1.9 L65.7,1.6 L65.7,2.8 L66.9,2.8 L66.9,3.5 L66.9,3.5 Z M72.5,7.4 L71.5,7.4 L71.5,4.7 C71.5,3.9 71.2,3.4 70.6,3.4 C70.1,3.4 69.8,3.6 69.6,4.1 L69.6,7.3 L68.6,7.3 L68.6,0.6 L69.6,0.6 L69.6,3.4 C69.9,2.9 70.4,2.6 71,2.6 C71.4,2.6 71.8,2.7 72.1,3 C72.5,3.4 72.6,3.9 72.6,4.6 C72.5,4.6 72.5,7.4 72.5,7.4 L72.5,7.4 Z M78.2,4.9 L78.2,5.4 L75,5.4 C75,5.9 75.2,6.2 75.5,6.5 C75.8,6.7 76.1,6.8 76.5,6.8 C77,6.8 77.4,6.7 77.8,6.6 L78,7.3 C77.6,7.5 77,7.6 76.4,7.6 C75.7,7.6 75.1,7.4 74.7,7 C74.3,6.6 74.1,6 74.1,5.3 C74.1,4.6 74.3,4 74.7,3.5 C75.1,3 75.7,2.7 76.3,2.7 C77,2.7 77.5,3 77.8,3.5 C78.1,3.8 78.2,4.3 78.2,4.9 L78.2,4.9 Z M77.2,4.6 C77.2,4.3 77.1,4 77,3.8 C76.8,3.5 76.5,3.4 76.2,3.4 C75.9,3.4 75.6,3.5 75.4,3.8 C75.2,4 75.1,4.3 75.1,4.6 L77.2,4.6 L77.2,4.6 Z"></path>
                    </g>
                </g>
            </g>
        </g>
    </g>
</svg>