<?xml version="1.0" encoding="UTF-8" standalone="no"?>
<svg width="134px" height="40px" viewBox="0 0 134 40" version="1.1" xmlns="http://www.w3.org/2000/svg" xmlns:xlink="http://www.w3.org/1999/xlink">
    <!-- Generator: Sketch 3.7 (28169) - http://www.bohemiancoding.com/sketch -->
    <title>ico_googleplay</title>
    <desc>Created with Sketch.</desc>
    <defs>
        <linearGradient x1="60.0308721%" y1="91.8394872%" x2="33.4409583%" y2="-59.3088418%" id="linearGradient-1">
            <stop stop-color="#D6FFA1" offset="0%"></stop>
            <stop stop-color="#93E2A7" offset="32.6%"></stop>
            <stop stop-color="#00A3B5" offset="100%"></stop>
        </linearGradient>
        <linearGradient x1="-31.9934636%" y1="-128.721883%" x2="80.4653867%" y2="114.085389%" id="linearGradient-2">
            <stop stop-color="#FF177B" offset="0%"></stop>
            <stop stop-color="#FFA976" offset="67.2%"></stop>
            <stop stop-color="#FFEC73" offset="100%"></stop>
        </linearGradient>
        <linearGradient x1="50.8138393%" y1="74.694715%" x2="-0.0825311751%" y2="-29.4892907%" id="linearGradient-3">
            <stop stop-color="#63FFD4" offset="0%"></stop>
            <stop stop-color="#32A0BA" offset="48.5%"></stop>
            <stop stop-color="#1262A9" offset="83.5%"></stop>
            <stop stop-color="#064AA2" offset="100%"></stop>
        </linearGradient>
        <linearGradient x1="119.227164%" y1="35.5310209%" x2="-23.0665%" y2="61.0250534%" id="linearGradient-4">
            <stop stop-color="#FF4521" offset="0%"></stop>
            <stop stop-color="#D43E65" offset="34.1%"></stop>
            <stop stop-color="#9F36B9" offset="79.3%"></stop>
            <stop stop-color="#8A33DB" offset="100%"></stop>
        </linearGradient>
    </defs>
    <g id="Construir" stroke="none" stroke-width="1" fill="none" fill-rule="evenodd">
        <g id="Home" transform="translate(-272.000000, -501.000000)">
            <g id="ico_googleplay" transform="translate(272.000000, 501.000000)">
                <g id="Group">
                    <path d="M129.947368,39.9605263 L4.69736842,39.9605263 C2.09210526,39.9605263 0,37.8684211 0,35.2763158 L0,4.72368421 C0,2.13157895 2.09210526,0.0263157895 4.69736842,0.0263157895 L129.947368,0.0263157895 C132.539474,0.0263157895 134.736842,2.11842105 134.736842,4.72368421 L134.736842,35.1578947 C134.736842,37.8684211 132.539474,39.9605263 129.947368,39.9605263 L129.947368,39.9605263 Z" id="Shape"></path>
                    <path d="M133.736842,35.2763158 C133.736842,37.3684211 132.039474,39.0657895 129.947368,39.0657895 L4.69736842,39.0657895 C2.60526316,39.0657895 0.907894737,37.3684211 0.907894737,35.2763158 L0.907894737,4.72368421 C0.907894737,2.63157895 2.60526316,0.934210526 4.69736842,0.934210526 L129.947368,0.934210526 C132.039474,0.934210526 133.736842,2.63157895 133.736842,4.72368421 L133.736842,35.2763158 L133.736842,35.2763158 Z" id="Shape" fill="#263238"></path>
                    <g transform="translate(36.973684, 17.105263)" id="Shape" fill="#FFFFFF">
                        <path d="M52.7894737,11.7894737 L51.9078947,12.6184211 C51.7105263,12.7236842 51.5,12.8552632 51.3026316,12.9473684 C50.6973684,13.2236842 50.0657895,13.2894737 49.5131579,13.2894737 C48.9210526,13.2894737 48,13.25 47.0657895,12.5657895 C45.7631579,11.6447368 45.1842105,10.0657895 45.1842105,8.68421053 C45.1842105,5.82894737 47.5,4.43421053 49.3947368,4.43421053 C50.0526316,4.43421053 50.7368421,4.60526316 51.2894737,4.94736842 C52.2105263,5.55263158 52.4473684,6.34210526 52.5789474,6.76315789 L48.25,8.51315789 L46.8289474,8.61842105 C47.2894737,10.9605263 48.8684211,12.3157895 50.6184211,12.3157895 C51.4868421,12.3157895 52.1447368,12.0263158 52.7368421,11.7368421 C52.7631579,11.7763158 52.8815789,11.7105263 52.7894737,11.7894737 L52.7894737,11.7894737 Z M50.1842105,7.14473684 C50.5394737,7.01315789 50.7236842,6.90789474 50.7236842,6.64473684 C50.7236842,5.90789474 49.8947368,5.06578947 48.8947368,5.06578947 C48.1578947,5.06578947 46.7763158,5.63157895 46.7763158,7.61842105 C46.7763158,7.93421053 46.8157895,8.26315789 46.8289474,8.59210526 L50.1842105,7.14473684 L50.1842105,7.14473684 Z M43.75,11.6578947 C43.75,12.3684211 43.8815789,12.4868421 44.4868421,12.5394737 C44.8026316,12.5789474 45.1184211,12.5921053 45.4210526,12.6315789 L44.7368421,13.0394737 L41.5,13.0394737 C41.9210526,12.4868421 42,12.4342105 42,12.0657895 L42,11.6578947 L41.9868421,0.723684211 L40.5526316,0.723684211 L41.9342105,0.0657894737 L44.5657895,0.0657894737 C44,0.394736842 43.8289474,0.592105263 43.75,1.23684211 L43.75,11.6578947 L43.75,11.6578947 Z M38.7368421,5.36842105 C39.1578947,5.71052632 40.0394737,6.44736842 40.0394737,7.85526316 C40.0394737,9.21052632 39.2763158,9.85526316 38.5,10.4605263 C38.2631579,10.6973684 37.9868421,10.9605263 37.9868421,11.3552632 C37.9868421,11.7631579 38.2631579,11.9868421 38.4605263,12.1447368 L39.1184211,12.6578947 C39.9210526,13.3421053 40.6578947,13.9605263 40.6578947,15.2368421 C40.6578947,16.9605263 38.9868421,18.7105263 35.8157895,18.7105263 C33.1578947,18.7105263 31.8684211,17.4473684 31.8684211,16.0789474 C31.8684211,15.4210526 32.1973684,14.4736842 33.2894737,13.8421053 C34.4342105,13.1447368 35.9736842,13.0526316 36.8026316,13 C36.5394737,12.6710526 36.25,12.3157895 36.25,11.75 C36.25,11.4342105 36.3421053,11.25 36.4342105,11.0394737 C36.2368421,11.0526316 36.0263158,11.0789474 35.8421053,11.0789474 C33.8947368,11.0789474 32.7894737,9.61842105 32.7894737,8.18421053 C32.7894737,7.34210526 33.1710526,6.39473684 33.9736842,5.72368421 C35.0263158,4.85526316 36.2763158,4.71052632 37.2631579,4.71052632 L41.0526316,4.71052632 L39.8684211,5.38157895 L38.7368421,5.38157895 L38.7368421,5.36842105 Z M37.4210526,13.5263158 C37.2763158,13.5131579 37.1842105,13.5131579 37,13.5131579 C36.8289474,13.5131579 35.8421053,13.5526316 35.0657895,13.8026316 C34.6578947,13.9473684 33.4868421,14.3947368 33.4868421,15.6973684 C33.4868421,17 34.7631579,17.9342105 36.7236842,17.9342105 C38.4868421,17.9342105 39.4210526,17.0921053 39.4210526,15.9473684 C39.4342105,15.0131579 38.8289474,14.5263158 37.4210526,13.5263158 L37.4210526,13.5263158 Z M37.9605263,10.0394737 C38.3815789,9.61842105 38.4210526,9.02631579 38.4210526,8.69736842 C38.4210526,7.38157895 37.6315789,5.31578947 36.1052632,5.31578947 C35.6315789,5.31578947 35.1052632,5.55263158 34.8157895,5.92105263 C34.5,6.30263158 34.4078947,6.80263158 34.4078947,7.27631579 C34.4078947,8.51315789 35.1315789,10.5526316 36.7105263,10.5526316 C37.1710526,10.5526316 37.6710526,10.3289474 37.9605263,10.0394737 L37.9605263,10.0394737 Z M27.3289474,13.2631579 C24.4078947,13.2631579 22.8421053,10.9868421 22.8421053,8.92105263 C22.8421053,6.51315789 24.8026316,4.44736842 27.6052632,4.44736842 C30.3026316,4.44736842 32,6.56578947 32,8.78947368 C32,10.9736842 30.3289474,13.2631579 27.3289474,13.2631579 L27.3289474,13.2631579 Z M29.6315789,11.7763158 C30.0789474,11.1842105 30.1842105,10.4473684 30.1842105,9.73684211 C30.1842105,8.11842105 29.4078947,5.02631579 27.1315789,5.02631579 C26.5263158,5.02631579 25.9078947,5.26315789 25.4736842,5.64473684 C24.75,6.28947368 24.6315789,7.09210526 24.6315789,7.89473684 C24.6315789,9.71052632 25.5263158,12.7105263 27.7631579,12.7105263 C28.4736842,12.7105263 29.2105263,12.3684211 29.6315789,11.7763158 L29.6315789,11.7763158 Z M17.5394737,13.2631579 C14.6184211,13.2631579 13.0526316,10.9868421 13.0526316,8.92105263 C13.0526316,6.51315789 15.0131579,4.44736842 17.8157895,4.44736842 C20.5131579,4.44736842 22.2105263,6.56578947 22.2105263,8.78947368 C22.2105263,10.9736842 20.5394737,13.2631579 17.5394737,13.2631579 L17.5394737,13.2631579 Z M19.8421053,11.7763158 C20.2894737,11.1842105 20.3947368,10.4473684 20.3947368,9.73684211 C20.3947368,8.11842105 19.6184211,5.02631579 17.3421053,5.02631579 C16.7368421,5.02631579 16.1315789,5.26315789 15.6842105,5.64473684 C14.9605263,6.28947368 14.8421053,7.09210526 14.8421053,7.89473684 C14.8421053,9.71052632 15.75,12.7105263 17.9736842,12.7105263 C18.6842105,12.7105263 19.4210526,12.3684211 19.8421053,11.7763158 L19.8421053,11.7763158 Z M11.8947368,12.6315789 L9.43421053,13.1973684 C8.43421053,13.3552632 7.53947368,13.5 6.59210526,13.5 C1.84210526,13.5 0.0263157895,10 0.0263157895,7.26315789 C0.0263157895,3.92105263 2.59210526,0.815789474 6.98684211,0.815789474 C7.92105263,0.815789474 8.81578947,0.947368421 9.63157895,1.17105263 C10.9210526,1.53947368 11.5263158,1.98684211 11.9078947,2.25 L10.4736842,3.60526316 L9.86842105,3.73684211 L10.3026316,3.05263158 C9.72368421,2.48684211 8.64473684,1.43421053 6.61842105,1.43421053 C3.89473684,1.43421053 1.84210526,3.5 1.84210526,6.51315789 C1.84210526,9.75 4.18421053,12.8026316 7.94736842,12.8026316 C9.05263158,12.8026316 9.61842105,12.5789474 10.1315789,12.3684211 L10.1315789,9.59210526 L7.52631579,9.73684211 L8.90789474,9 L12.5657895,9 L12.1184211,9.43421053 C12,9.53947368 11.9868421,9.56578947 11.9473684,9.71052632 C11.9342105,9.86842105 11.9078947,10.3684211 11.9078947,10.5394737 L11.9078947,12.6315789 L11.8947368,12.6315789 Z M58.0921053,11.8684211 L58.0921053,16.5526316 L57.1578947,16.5526316 L57.1578947,4.63157895 L58.0921053,4.63157895 L58.0921053,5.98684211 C58.6973684,5.10526316 59.8026316,4.40789474 61.0921053,4.40789474 C63.3947368,4.40789474 64.9473684,6.15789474 64.9473684,8.92105263 C64.9473684,11.6710526 63.3947368,13.4605263 61.0921053,13.4605263 C59.8815789,13.4868421 58.7894737,12.8552632 58.0921053,11.8684211 L58.0921053,11.8684211 Z M63.9473684,8.94736842 C63.9473684,6.85526316 62.8552632,5.26315789 60.9342105,5.26315789 C59.7368421,5.26315789 58.5921053,6.21052632 58.0921053,7.02631579 L58.0921053,10.8421053 C58.5921053,11.6710526 59.7368421,12.6447368 60.9342105,12.6447368 C62.8684211,12.6447368 63.9473684,11.0394737 63.9473684,8.94736842 L63.9473684,8.94736842 Z M66.2236842,13.2631579 L66.2236842,1.34210526 L67.1578947,1.34210526 L67.1578947,13.2631579 L66.2236842,13.2631579 L66.2236842,13.2631579 Z M77.5921053,15.7894737 C77.7894737,15.8815789 78.1315789,15.9342105 78.3421053,15.9342105 C78.9078947,15.9342105 79.3026316,15.6973684 79.6578947,14.8815789 L80.3421053,13.3421053 L76.6842105,4.64473684 L77.7236842,4.64473684 L80.8684211,12.1842105 L83.9868421,4.64473684 L85.0394737,4.64473684 L80.5657895,15.1710526 C80.1052632,16.25 79.3684211,16.7763158 78.3684211,16.7763158 C78.0657895,16.7763158 77.6710526,16.7236842 77.4342105,16.6447368 L77.5921053,15.7894737 L77.5921053,15.7894737 Z M74.8684211,13.2368421 C74.8026316,12.9342105 74.7631579,12.6710526 74.7236842,12.4605263 C74.6973684,12.2368421 74.6842105,12.0131579 74.6842105,11.7894737 C74.3684211,12.2631579 73.9078947,12.6447368 73.3421053,12.9605263 C72.7631579,13.2631579 72.2105263,13.4210526 71.4605263,13.4210526 C70.5526316,13.4210526 69.8552632,13.1973684 69.3552632,12.75 C68.8552632,12.3026316 68.6052632,11.6842105 68.6052632,10.9078947 C68.6052632,10.1315789 68.9736842,9.51315789 69.6973684,9.02631579 C70.4210526,8.53947368 71.3684211,8.30263158 72.5263158,8.30263158 L74.6973684,8.30263158 L74.6973684,7.23684211 C74.6973684,6.61842105 74.4868421,6.13157895 74.0657895,5.77631579 C73.6447368,5.42105263 73.0526316,5.25 72.2894737,5.25 C71.5921053,5.25 71.0131579,5.40789474 70.5921053,5.72368421 C70.1578947,6.05263158 69.9473684,6.44736842 69.9473684,6.93421053 L69,6.93421053 L68.9868421,6.88157895 C68.9473684,6.22368421 69.25,5.65789474 69.8815789,5.17105263 C70.5131579,4.68421053 71.3421053,4.43421053 72.3552632,4.43421053 C73.3684211,4.43421053 74.1842105,4.68421053 74.8026316,5.17105263 C75.4210526,5.65789474 75.7368421,6.35526316 75.7368421,7.26315789 L75.7368421,11.5131579 C75.7368421,11.8157895 75.75,12.1184211 75.7894737,12.4078947 C75.8289474,12.6973684 75.8947368,12.9868421 75.9736842,13.2631579 L74.8684211,13.2631579 L74.8684211,13.2368421 Z M71.5657895,12.5657895 C72.3552632,12.5657895 72.9210526,12.3947368 73.5,12.0394737 C74.0789474,11.6973684 74.4736842,11.2368421 74.6710526,10.6973684 L74.6710526,9.03947368 L72.5,9.03947368 C71.6710526,9.03947368 70.9736842,9.22368421 70.4342105,9.59210526 C69.8947368,9.96052632 69.6184211,10.4078947 69.6184211,10.9342105 C69.6184211,11.4210526 69.7894737,11.8157895 70.1447368,12.1184211 C70.4868421,12.4078947 70.9605263,12.5657895 71.5657895,12.5657895 L71.5657895,12.5657895 Z"></path>
                    </g>
                    <polygon id="Shape" points="23.3552632 22.4078947 26.5921053 19.1578947 23.3552632 22.4078947 13.0131579 12.0657895 23.3552632 22.4078947 13 32.7631579 23.3552632 22.4078947 26.6052632 25.6578947"></polygon>
                    <path d="M26.5921053,19.1578947 L13.9736842,12.2236842 C13.6184211,12.0263158 13.2894737,11.9868421 13.0131579,12.0657895 L23.3552632,22.4078947 L26.5921053,19.1578947 L26.5921053,19.1578947 Z" id="Shape" fill="url(#linearGradient-1)"></path>
                    <path d="M26.6052632,25.6578947 L30.9078947,23.2894737 C31.7763158,22.8026316 31.7763158,22.0263158 30.9078947,21.5394737 L26.5789474,19.1578947 L23.3421053,22.3947368 L26.6052632,25.6578947 L26.6052632,25.6578947 Z" id="Shape" fill="url(#linearGradient-2)"></path>
                    <path d="M13.0131579,12.0657895 C12.6315789,12.1842105 12.3815789,12.5789474 12.3815789,13.1578947 L12.3815789,31.6578947 C12.3815789,32.2368421 12.6184211,32.6184211 13,32.75 L23.3552632,22.3947368 L13.0131579,12.0657895 L13.0131579,12.0657895 Z" id="Shape" fill="url(#linearGradient-3)"></path>
                    <path d="M13,32.7631579 C13.2631579,32.8552632 13.6052632,32.8157895 13.9736842,32.6052632 L26.6052632,25.6578947 L23.3552632,22.4078947 L13,32.7631579 L13,32.7631579 Z" id="Shape" fill="url(#linearGradient-4)"></path>
                    <g transform="translate(36.842105, 7.236842)" id="Shape" fill="#FFFFFF">
                        <path d="M0.118421053,3.02631579 C0.118421053,1.19736842 1.47368421,0.0131578947 3.17105263,0.0131578947 C4.30263158,0.0131578947 5.05263158,0.552631579 5.51315789,1.21052632 L4.68421053,1.68421053 C4.36842105,1.25 3.81578947,0.907894737 3.17105263,0.907894737 C2.02631579,0.907894737 1.17105263,1.77631579 1.17105263,3.01315789 C1.17105263,4.22368421 2.02631579,5.11842105 3.17105263,5.11842105 C3.76315789,5.11842105 4.28947368,4.84210526 4.55263158,4.59210526 L4.55263158,3.69736842 L2.80263158,3.69736842 L2.80263158,2.80263158 L5.55263158,2.80263158 L5.55263158,4.97368421 C4.98684211,5.60526316 4.17105263,6.03947368 3.15789474,6.03947368 C1.48684211,6.03947368 0.118421053,4.84210526 0.118421053,3.02631579 L0.118421053,3.02631579 Z M6.82894737,5.92105263 L6.82894737,0.105263158 L10.8157895,0.105263158 L10.8157895,1 L7.85526316,1 L7.85526316,2.5 L10.7631579,2.5 L10.7631579,3.39473684 L7.85526316,3.39473684 L7.85526316,5.01315789 L10.8157895,5.01315789 L10.8157895,5.90789474 L6.82894737,5.90789474 L6.82894737,5.92105263 Z M13.6315789,5.92105263 L13.6315789,1 L11.8684211,1 L11.8684211,0.105263158 L16.4078947,0.105263158 L16.4078947,1 L14.6447368,1 L14.6447368,5.92105263 L13.6315789,5.92105263 L13.6315789,5.92105263 Z M19.9605263,5.92105263 L19.9605263,0.105263158 L20.9868421,0.105263158 L20.9868421,5.92105263 L19.9605263,5.92105263 L19.9605263,5.92105263 Z M23.8289474,5.92105263 L23.8289474,1 L22.0657895,1 L22.0657895,0.105263158 L26.6052632,0.105263158 L26.6052632,1 L24.8421053,1 L24.8421053,5.92105263 L23.8289474,5.92105263 L23.8289474,5.92105263 Z M29.9078947,3.02631579 C29.9078947,1.28947368 31.1315789,0.0131578947 32.8815789,0.0131578947 C34.6184211,0.0131578947 35.8552632,1.28947368 35.8552632,3.02631579 C35.8552632,4.76315789 34.6184211,6.03947368 32.8815789,6.03947368 C31.1315789,6.02631579 29.9078947,4.75 29.9078947,3.02631579 L29.9078947,3.02631579 Z M34.8026316,3.02631579 C34.8026316,1.82894737 34.0394737,0.921052632 32.8815789,0.921052632 C31.7105263,0.921052632 30.9473684,1.81578947 30.9473684,3.02631579 C30.9473684,4.22368421 31.6973684,5.13157895 32.8815789,5.13157895 C34.0526316,5.11842105 34.8026316,4.21052632 34.8026316,3.02631579 L34.8026316,3.02631579 Z M41.1052632,5.92105263 L38.0657895,1.76315789 L38.0657895,5.92105263 L37.0394737,5.92105263 L37.0394737,0.105263158 L38.0921053,0.105263158 L41.0657895,4.13157895 L41.0657895,0.105263158 L42.0921053,0.105263158 L42.0921053,5.92105263 L41.1052632,5.92105263 L41.1052632,5.92105263 Z"></path>
                    </g>
                </g>
            </g>
        </g>
    </g>
</svg>